<svg xmlns="http://www.w3.org/2000/svg" viewBox="0 0 50800 50800" fill-rule="evenodd" clip-rule="evenodd" shape-rendering="geometricPrecision" image-rendering="optimizeQuality" fill="#000066">
  <path d="M16849 41692l15144-13489-2048 5014c-848 1172-9325 7125-13096 8475zm-1807-886c7 1789-42 121 485 2173-1864 544-2461 1334-4444 1277l-694-11080 3970-2798c-914 2799-2113 3273-2331 4492-913 5108 5295-873 7281-1766-903 2080-1768 1758-2065 3895l4585-5051c4552-5047 5993-5372 10061-9482 1573-1589 3368-4550 5925-2944-55 109-157 147-190 315L18233 38124c-807 1027-1434 2197-3191 2682zM8735 19522c1079-832 1840-1304 2696-1964-818 2866-2813 4264-1044 6772 2258-45 1419-610 3628-1576-171 405-3386 6151-4386 6681l-894-9913zm2264 10738c737-2091 5431-7807 6966-9515 1909-2123 2637-2288 4359-3955 1442-1395 2772-2196 4679-3360 2491 1102 3749 2080 6528 2934-1147 2566-6237 7327-8444 9547-1607 1616-7837 6779-10435 7562 1500-3688 8486-10183 11573-12283 5284-3595 1464-4296 376-4133-1551 232-447-58-1316 724-300 270-1345 1585-1852 2082-1395 1367-2537 2631-3929 3890-1738 1572-6570 5761-8505 6507zm981-9337c1088-2300 2636-4170 4419-5651l5114-4273 2129 1127c-78 84-187 204-272 294-2468 2622-8077 8355-11390 8503zm-1985-5353c632-1459 1545-2491 2718-3986 2322-2962 2749-3219 5436-1834-1059 1464-6290 5243-8154 5820zm8060-8599c-2549-975-7319-3380-10133-3584 292 3087 2855 2951 5235 4027l-3723 5296c-1034 1512-316 756-1510 1577-139-1733-187-3332-196-5067-32-6111-3883-4030-3185-1035l3322 28418c58 2633 303 9352 719 11088 2898 581 3990 61 6013-1473 4719-3577 7020-3986 9823-5820 1720-1125 947-1105 4532-3290 1819-1109 5800-5035 8747-6895 4908-3099 8692-3987 8793-6723-3917-1090-7893 4249-12676 6268 650-2664 1907-2471 4675-6069 3790-4927 2968-1365 6894-1859-803-3440-1816-2253-7752-6102-2789-1809-6324-2924-9358-4815-3009-1876-6402-2483-10220-3942z"/>
</svg>
