<svg xmlns="http://www.w3.org/2000/svg" viewBox="0 0 50800 50800" fill-rule="evenodd" clip-rule="evenodd" shape-rendering="geometricPrecision" image-rendering="optimizeQuality" fill="#000066">
  <path d="M31189 37442l1150-799-1150 799zm-2802-683c2659-5554 11180-16070 15266-18174l-294 12866-1956 844c-1804 730-69-371-1744 924-1343 1038-1075 1471-3339 2291 472-1644 1447-2688 2482-3887l1653-2973c-4-77-141-193-140-386 8-3538-8390 6950-11928 8495zM5750 27865c116-55 307-50 381-58 73-9 289-40 379-49 89-11 279-24 378-36 3104-363 2991-1820 6321-4194 3370-2401 4800-4053 7678-5113-1161 4236-4313 7053-6392 10107-1801 2645-2532 5697-7025 9038-1073-2727-909-6684-1720-9695zm-117-3282c14-3655 1627-4592 4795-7874 648-671 1155-927 1770-1702-757 3007-3543 9061-6565 9576zm1017-7449c332-2289 3103-6242 4440-8060 2278-3101 2847-4306 7401-4683-1533 4281-8906 11175-11841 12743zm4244 4872c1943-5898 8543-13321 12368-17571l7575 596c-33 2132-5949 8219-8642 10080l-11301 6895zm4246 8169c1506-3842 9450-14945 13133-17782 1184-913 2071-1794 3378-2744 1401-1018 1838-1359 3457-2681 1617-1320 1663-1465 4288-1140-2088 2349-3832 4903-5335 7153-2228 3335-2775 3099-5477 6408-1031 1262-11528 10013-13444 10786zM42318 7756c-1014-1808-322-773-1724-2300l3946 488c-1066 12315 137 6227-4054 10743l-7959 8985-13142 10101c1891-4270 8044-11428 10959-14984 5000-6098 10544-9556 11974-13033zM31189 37442c448 3333 1320 1929 3690 3582l2612 1645c2883-2116 1607-5078 5723-7451 531 3282-660 8231 3340 8174l83-20728c213-3667 193-7576 555-11146 884-8717 5226-8906-5539-8881-4134 10-1224-1051-4306-1692-2328-484-1854 1547-4481 1801-4963 479-8704-2398-10484-1873-4222 1245-8773 976-13675 1311-734 51-821 79-1406 173-102 16-363 243-426 110-69-146-3514 2028 4636 2491-922 2172-1946 3052-3258 5122-1203 1896-1689 3093-2571 4947-2111-3018 104-7608-592-9643l-1611-219c-3034 3673-198 26981 845 33116 628 3693 272 6823 1270 10377 2678 643 15272-632 20176-729 3606-72 6690-523 10366-500 3454 21 7705 819 9431-1208-3335-6237-24858 2458-37195-1957 4-4936-260-2699 2508-5946 1609-1888 1996-2832 3617-4293 2017-1819 2702-2201 4382-4036 1512-1651 2325-2759 4619-3224-468 2729-1081 1555-2132 3482-4195 7692-6953 7305-6575 11510 2872 292 3706-2005 7065-4757 2063-1690 5498-4597 7088-5366-1250 3529-7054 9136-5796 11732 2155 116 3888-2648 6077-4600 374-333 459-418 923-746 814-575 235-246 1041-578z"/>
</svg>
